<svg width="588" height="307" viewBox="0 0 588 307" fill="none" xmlns="http://www.w3.org/2000/svg">
<path d="M573.399 228.52C576.199 230.013 578.673 231.88 580.819 234.12C582.966 236.36 584.599 238.927 585.719 241.82C586.933 244.62 587.539 247.607 587.539 250.78H573.399V275.98C573.399 284.1 570.926 290.867 565.979 296.28C561.033 301.693 554.406 304.4 546.099 304.4V250.78H526.499C524.073 250.78 521.693 250.5 519.359 249.94C512.453 248.82 506.946 245.693 502.839 240.56C498.733 235.427 496.679 229.313 496.679 222.22V173.36C505.173 173.36 511.893 175.647 516.839 180.22C521.879 184.7 524.399 190.813 524.399 198.56V220.82C524.399 222.033 524.819 223.06 525.659 223.9C526.593 224.74 527.666 225.16 528.879 225.16H546.099V198.28C546.099 190.347 548.526 184.14 553.379 179.66C558.233 175.087 564.906 172.8 573.399 172.8V228.52Z" fill="white"/>
<path d="M444.201 278.5H485.221C485.221 285.593 482.888 291.707 478.221 296.84C473.554 301.88 467.908 304.4 461.281 304.4H412.141V245.18C412.141 238.273 414.428 232.72 419.001 228.52C423.574 224.32 429.268 222.22 436.081 222.22H449.241C450.734 222.22 451.994 221.707 453.021 220.68C454.048 219.653 454.561 218.393 454.561 216.9V204.3C454.561 202.993 454.048 201.873 453.021 200.94C452.088 200.007 450.968 199.54 449.661 199.54H412.141C412.141 192.26 414.474 186.007 419.141 180.78C423.901 175.46 429.548 172.8 436.081 172.8H461.841C466.414 172.8 470.474 174.107 474.021 176.72C477.661 179.333 480.088 182.787 481.301 187.08C482.141 189.133 482.748 191.747 483.121 194.92V195.48C483.214 196.133 483.261 196.787 483.261 197.44V219.28C483.074 224.787 481.348 229.733 478.081 234.12C474.814 238.507 470.708 241.82 465.761 244.06C460.814 246.3 455.634 247.42 450.221 247.42H444.201C442.801 247.42 441.634 247.887 440.701 248.82C439.768 249.753 439.301 250.873 439.301 252.18V273.6C439.301 274.907 439.768 276.073 440.701 277.1C441.634 278.033 442.801 278.5 444.201 278.5Z" fill="white"/>
<path d="M366.222 171.54C375.462 171.54 383.349 174.807 389.882 181.34C396.416 187.873 399.682 195.76 399.682 205V270.8C399.682 280.04 396.416 287.927 389.882 294.46C383.349 300.993 375.462 304.26 366.222 304.26H353.062C343.822 304.26 335.889 300.993 329.262 294.46C322.729 287.927 319.462 280.04 319.462 270.8V205C319.462 195.76 322.729 187.873 329.262 181.34C335.889 174.807 343.822 171.54 353.062 171.54H366.222ZM353.062 198.56C351.289 198.56 349.749 199.213 348.442 200.52C347.136 201.733 346.482 203.227 346.482 205V240.7L372.662 205.98V205C372.662 203.227 372.009 201.733 370.702 200.52C369.489 199.213 367.996 198.56 366.222 198.56H353.062ZM366.222 277.24C367.996 277.24 369.489 276.633 370.702 275.42C372.009 274.113 372.662 272.573 372.662 270.8V236.08L346.482 270.8C346.482 272.573 347.136 274.113 348.442 275.42C349.749 276.633 351.289 277.24 353.062 277.24H366.222Z" fill="white"/>
<path d="M271.799 278.5H312.819C312.819 285.593 310.485 291.707 305.819 296.84C301.152 301.88 295.505 304.4 288.879 304.4H239.739V245.18C239.739 238.273 242.025 232.72 246.599 228.52C251.172 224.32 256.865 222.22 263.679 222.22H276.839C278.332 222.22 279.592 221.707 280.619 220.68C281.645 219.653 282.159 218.393 282.159 216.9V204.3C282.159 202.993 281.645 201.873 280.619 200.94C279.685 200.007 278.565 199.54 277.259 199.54H239.739C239.739 192.26 242.072 186.007 246.739 180.78C251.499 175.46 257.145 172.8 263.679 172.8H289.439C294.012 172.8 298.072 174.107 301.619 176.72C305.259 179.333 307.685 182.787 308.899 187.08C309.739 189.133 310.345 191.747 310.719 194.92V195.48C310.812 196.133 310.859 196.787 310.859 197.44V219.28C310.672 224.787 308.945 229.733 305.679 234.12C302.412 238.507 298.305 241.82 293.359 244.06C288.412 246.3 283.232 247.42 277.819 247.42H271.799C270.399 247.42 269.232 247.887 268.299 248.82C267.365 249.753 266.899 250.873 266.899 252.18V273.6C266.899 274.907 267.365 276.073 268.299 277.1C269.232 278.033 270.399 278.5 271.799 278.5Z" fill="white"/>
<path d="M171.803 201.5C171.803 193.567 174.836 186.8 180.903 181.2C187.063 175.6 194.483 172.8 203.163 172.8V277.38C203.163 285.407 200.083 292.22 193.923 297.82C187.856 303.42 180.483 306.22 171.803 306.22V253.3H135.543V277.38C135.543 285.407 132.463 292.22 126.303 297.82C120.143 303.42 112.769 306.22 104.183 306.22V229.08C103.996 227.96 103.903 226.84 103.903 225.72H104.183V201.5C104.183 193.567 107.216 186.8 113.283 181.2C119.443 175.6 126.863 172.8 135.543 172.8V225.72H171.803V201.5Z" fill="white"/>
<path d="M83.58 183.86C87.78 187.78 91 192.68 93.24 198.56C95.48 204.347 96.6 210.88 96.6 218.16V218.58C96.6 226.42 95.34 233.327 92.82 239.3C90.3933 245.18 86.9867 250.173 82.6 254.28C78.3067 258.293 73.1267 261.327 67.06 263.38C60.9933 265.34 54.4133 266.32 47.32 266.32H31.64V267.44C31.64 277.613 28.5133 286.293 22.26 293.48C16.1 300.667 8.68 304.26 0 304.26V201.64C0 193.613 3.12667 186.613 9.38 180.64C15.6333 174.573 22.4933 171.54 29.96 171.54H49C56.1867 171.54 62.72 172.613 68.6 174.76C74.48 176.813 79.4733 179.847 83.58 183.86ZM64.82 220.12V219.84C64.82 214.053 63.1867 209.667 59.92 206.68C56.7467 203.693 52.2667 202.2 46.48 202.2H31.64V237.48H46.76C52.36 237.48 56.7467 235.94 59.92 232.86C63.1867 229.78 64.82 225.533 64.82 220.12Z" fill="white"/>
<path d="M525.956 31.08C525.956 23.24 528.849 16.52 534.636 10.92C540.422 5.32002 547.282 2.52002 555.216 2.52002V106.12C555.216 114.053 552.322 120.82 546.536 126.42C540.749 132.02 533.936 134.82 526.096 134.82V124.6L472.756 53.34V106.4C472.756 114.24 469.956 120.96 464.356 126.56C458.849 132.067 452.129 134.82 444.196 134.82V31.08C444.196 23.1467 446.996 16.4267 452.596 10.92C458.196 5.32002 464.916 2.52002 472.756 2.52002L525.956 79.24V31.08Z" fill="white"/>
<path d="M429.581 14.42C432.474 18.9 433.921 23.7533 433.921 28.98V107.66C433.921 115.313 431.074 121.8 425.381 127.12C419.781 132.347 412.874 135.333 404.661 136.08C399.528 136.547 391.314 136.78 380.021 136.78C375.354 136.78 370.314 136.547 364.901 136.08C356.034 135.333 349.128 132.533 344.181 127.68C342.128 126 340.728 124.227 339.981 122.36C337.088 117.787 335.641 112.887 335.641 107.66V28.98C335.641 21.3267 338.441 14.8867 344.041 9.66C349.734 4.43333 356.688 1.44667 364.901 0.699999C370.034 0.233333 375.308 0 380.721 0C391.268 0 399.248 0.233333 404.661 0.699999C413.528 1.44667 420.434 4.24667 425.381 9.1C427.434 10.78 428.834 12.5533 429.581 14.42ZM404.661 98.7V37.24C404.288 35 403.401 33.2267 402.001 31.92C400.601 30.52 398.781 29.82 396.541 29.82L373.021 29.68C370.781 29.68 368.961 30.38 367.561 31.78C366.161 33.18 365.274 35 364.901 37.24V98.7C365.274 100.94 366.161 102.76 367.561 104.16C368.961 105.467 370.781 106.12 373.021 106.12L396.541 106.26V106.12C398.781 106.12 400.601 105.467 402.001 104.16C403.401 102.76 404.288 100.94 404.661 98.7Z" fill="white"/>
<path d="M245.833 117.46C244.246 113.913 243.453 110.18 243.453 106.26V30.94C243.453 30.8467 243.453 30.8 243.453 30.8C243.453 30.7067 243.453 30.6133 243.453 30.52C243.453 22.3067 245.74 15.68 250.313 10.64C254.886 5.50666 260.953 2.75332 268.513 2.37999V2.23999H325.213V9.79998C325.213 16.8 322.973 22.5867 318.493 27.16C314.013 31.7333 308.086 34.02 300.713 34.02V30.52H281.393C279.433 30.8 277.66 31.64 276.073 33.04C274.486 34.44 273.506 36.1667 273.133 38.22C273.133 38.6867 273.133 39.1067 273.133 39.48V48.58C273.133 48.9533 273.133 49.42 273.133 49.98V99.4C273.506 101.64 274.393 103.413 275.793 104.72C277.193 106.027 278.966 106.68 281.113 106.68H325.913C325.913 115.08 323.16 121.893 317.653 127.12C312.146 132.347 305.333 134.96 297.213 134.96H272.013L271.873 134.82C265.526 134.353 259.88 132.253 254.933 128.52C250.826 125.44 247.793 121.753 245.833 117.46Z" fill="white"/>
<path d="M204.669 19.6C208.216 12.1333 213.536 7.04664 220.629 4.33997C227.722 1.53997 235.282 1.95997 243.309 5.59997L188.569 119.7C184.929 127.167 179.562 132.253 172.469 134.96C165.469 137.667 157.909 137.2 149.789 133.56L170.229 91.14L128.649 5.31997C136.676 1.58664 144.702 1.16664 152.729 4.05997C160.849 6.9533 166.729 12.1333 170.369 19.6L187.449 55.16L204.669 19.6Z" fill="white"/>
<path d="M113.385 13.86C117.585 17.78 120.805 22.68 123.045 28.56C125.285 34.3467 126.405 40.8801 126.405 48.16V48.58C126.405 56.42 125.145 63.3267 122.625 69.3C120.198 75.18 116.791 80.1734 112.405 84.28C108.111 88.2934 102.931 91.3267 96.8647 93.38C90.798 95.34 84.218 96.32 77.1247 96.32H61.4447V97.44C61.4447 107.613 58.318 116.293 52.0647 123.48C45.9047 130.667 38.4847 134.26 29.8047 134.26V31.64C29.8047 23.6134 32.9314 16.6134 39.1847 10.64C45.438 4.57338 52.298 1.54004 59.7647 1.54004H78.8047C85.9914 1.54004 92.5247 2.61337 98.4047 4.76004C104.285 6.81337 109.278 9.84671 113.385 13.86ZM94.6247 50.12V49.84C94.6247 44.0534 92.9914 39.6667 89.7247 36.68C86.5514 33.6934 82.0714 32.2 76.2847 32.2H61.4447V67.48H76.5647C82.1647 67.48 86.5514 65.94 89.7247 62.86C92.9914 59.78 94.6247 55.5334 94.6247 50.12Z" fill="white"/>
</svg>
